<mxfile host="app.diagrams.net" agent="Mozilla/5.0 (Windows NT 10.0; Win64; x64) AppleWebKit/537.36 (KHTML, like Gecko) Chrome/129.0.0.0 Safari/537.36" version="24.7.16">
  <diagram id="2f404044-711c-603c-8f00-f6bb4c023d3c" name="Page-1">
    <mxGraphModel dx="1963" dy="1040" grid="1" gridSize="10" guides="1" tooltips="1" connect="1" arrows="1" fold="1" page="1" pageScale="1" pageWidth="827" pageHeight="1169" background="none" math="0" shadow="0">
      <root>
        <mxCell id="0" />
        <mxCell id="1" parent="0" />
        <mxCell id="1ULtt0AO9vU7mEZM1UBC-470" style="edgeStyle=orthogonalEdgeStyle;rounded=0;orthogonalLoop=1;jettySize=auto;html=1;strokeColor=#A8201A;fontColor=#143642;fillColor=#FAE5C7;" edge="1" parent="1" source="1ULtt0AO9vU7mEZM1UBC-469" target="1ULtt0AO9vU7mEZM1UBC-471">
          <mxGeometry relative="1" as="geometry">
            <mxPoint x="577.9999999999998" y="40" as="targetPoint" />
          </mxGeometry>
        </mxCell>
        <mxCell id="1ULtt0AO9vU7mEZM1UBC-473" style="edgeStyle=orthogonalEdgeStyle;rounded=0;orthogonalLoop=1;jettySize=auto;html=1;exitX=0.5;exitY=1;exitDx=0;exitDy=0;strokeColor=#A8201A;fontColor=#143642;fillColor=#FAE5C7;" edge="1" parent="1" source="1ULtt0AO9vU7mEZM1UBC-469">
          <mxGeometry relative="1" as="geometry">
            <mxPoint x="68" y="140" as="targetPoint" />
            <Array as="points">
              <mxPoint x="438" y="105" />
              <mxPoint x="68" y="105" />
            </Array>
          </mxGeometry>
        </mxCell>
        <mxCell id="1ULtt0AO9vU7mEZM1UBC-474" style="edgeStyle=orthogonalEdgeStyle;rounded=0;orthogonalLoop=1;jettySize=auto;html=1;exitX=0.5;exitY=1;exitDx=0;exitDy=0;strokeColor=#A8201A;fontColor=#143642;fillColor=#FAE5C7;" edge="1" parent="1" source="1ULtt0AO9vU7mEZM1UBC-469">
          <mxGeometry relative="1" as="geometry">
            <mxPoint x="757.9999999999998" y="140" as="targetPoint" />
          </mxGeometry>
        </mxCell>
        <mxCell id="1ULtt0AO9vU7mEZM1UBC-469" value="&lt;font style=&quot;font-size: 18px;&quot;&gt;Login&lt;/font&gt;" style="rounded=0;whiteSpace=wrap;html=1;strokeColor=#ae4132;fillColor=#fad9d5;" vertex="1" parent="1">
          <mxGeometry x="378" y="10" width="120" height="60" as="geometry" />
        </mxCell>
        <mxCell id="1ULtt0AO9vU7mEZM1UBC-476" style="edgeStyle=orthogonalEdgeStyle;rounded=0;orthogonalLoop=1;jettySize=auto;html=1;exitX=0;exitY=1;exitDx=0;exitDy=0;entryX=0.75;entryY=1;entryDx=0;entryDy=0;strokeColor=#A8201A;fontColor=#143642;fillColor=#FAE5C7;" edge="1" parent="1" source="1ULtt0AO9vU7mEZM1UBC-471" target="1ULtt0AO9vU7mEZM1UBC-469">
          <mxGeometry relative="1" as="geometry" />
        </mxCell>
        <mxCell id="1ULtt0AO9vU7mEZM1UBC-471" value="&lt;font style=&quot;font-size: 14px;&quot;&gt;SignUp&lt;/font&gt;" style="rhombus;whiteSpace=wrap;html=1;strokeColor=#ae4132;fillColor=#fad9d5;" vertex="1" parent="1">
          <mxGeometry x="587.9999999999998" y="10" width="80" height="80" as="geometry" />
        </mxCell>
        <mxCell id="1ULtt0AO9vU7mEZM1UBC-477" value="Not a user" style="rounded=0;whiteSpace=wrap;html=1;strokeColor=#0F8B8D;fontColor=#143642;fillColor=#ccffd5;" vertex="1" parent="1">
          <mxGeometry x="518" y="10" width="70" height="20" as="geometry" />
        </mxCell>
        <mxCell id="1ULtt0AO9vU7mEZM1UBC-485" style="edgeStyle=orthogonalEdgeStyle;rounded=0;orthogonalLoop=1;jettySize=auto;html=1;exitX=1;exitY=0.5;exitDx=0;exitDy=0;strokeColor=#A8201A;fontColor=#143642;fillColor=#FAE5C7;shape=link;" edge="1" parent="1" source="1ULtt0AO9vU7mEZM1UBC-482" target="1ULtt0AO9vU7mEZM1UBC-483">
          <mxGeometry relative="1" as="geometry">
            <Array as="points">
              <mxPoint x="410" y="170" />
              <mxPoint x="410" y="170" />
            </Array>
          </mxGeometry>
        </mxCell>
        <mxCell id="1ULtt0AO9vU7mEZM1UBC-482" value="&lt;font style=&quot;font-size: 16px;&quot;&gt;Source&lt;/font&gt;&lt;div style=&quot;font-size: 16px;&quot;&gt;&lt;font style=&quot;font-size: 16px;&quot;&gt;Coordinates&lt;/font&gt;&lt;/div&gt;" style="shape=parallelogram;perimeter=parallelogramPerimeter;whiteSpace=wrap;html=1;fixedSize=1;strokeColor=#0e8088;fillColor=#b0e3e6;" vertex="1" parent="1">
          <mxGeometry x="10" y="140" width="120" height="60" as="geometry" />
        </mxCell>
        <mxCell id="1ULtt0AO9vU7mEZM1UBC-483" value="&lt;font style=&quot;font-size: 16px;&quot;&gt;Destination&lt;/font&gt;&lt;div style=&quot;font-size: 16px;&quot;&gt;&lt;font style=&quot;font-size: 16px;&quot;&gt;Coordinates&amp;nbsp;&lt;/font&gt;&lt;/div&gt;" style="shape=parallelogram;perimeter=parallelogramPerimeter;whiteSpace=wrap;html=1;fixedSize=1;strokeColor=#0e8088;fillColor=#b0e3e6;" vertex="1" parent="1">
          <mxGeometry x="680" y="140" width="120" height="60" as="geometry" />
        </mxCell>
        <mxCell id="1ULtt0AO9vU7mEZM1UBC-487" value="" style="endArrow=none;html=1;rounded=0;strokeColor=#A8201A;fontColor=#143642;fillColor=#FAE5C7;" edge="1" parent="1">
          <mxGeometry width="50" height="50" relative="1" as="geometry">
            <mxPoint x="198" y="213" as="sourcePoint" />
            <mxPoint x="198" y="173" as="targetPoint" />
          </mxGeometry>
        </mxCell>
        <mxCell id="1ULtt0AO9vU7mEZM1UBC-488" value="" style="endArrow=none;html=1;rounded=0;strokeColor=#A8201A;fontColor=#143642;fillColor=#FAE5C7;" edge="1" parent="1">
          <mxGeometry width="50" height="50" relative="1" as="geometry">
            <mxPoint x="278" y="213" as="sourcePoint" />
            <mxPoint x="278" y="173" as="targetPoint" />
          </mxGeometry>
        </mxCell>
        <mxCell id="1ULtt0AO9vU7mEZM1UBC-489" value="" style="endArrow=none;html=1;rounded=0;strokeColor=#A8201A;fontColor=#143642;fillColor=#FAE5C7;" edge="1" parent="1">
          <mxGeometry width="50" height="50" relative="1" as="geometry">
            <mxPoint x="359" y="213" as="sourcePoint" />
            <mxPoint x="359" y="173" as="targetPoint" />
          </mxGeometry>
        </mxCell>
        <mxCell id="1ULtt0AO9vU7mEZM1UBC-490" value="" style="endArrow=none;html=1;rounded=0;strokeColor=#A8201A;fontColor=#143642;fillColor=#FAE5C7;" edge="1" parent="1">
          <mxGeometry width="50" height="50" relative="1" as="geometry">
            <mxPoint x="439" y="212" as="sourcePoint" />
            <mxPoint x="439" y="172" as="targetPoint" />
          </mxGeometry>
        </mxCell>
        <mxCell id="1ULtt0AO9vU7mEZM1UBC-491" value="" style="endArrow=none;html=1;rounded=0;strokeColor=#A8201A;fontColor=#143642;fillColor=#FAE5C7;" edge="1" parent="1">
          <mxGeometry width="50" height="50" relative="1" as="geometry">
            <mxPoint x="519" y="213" as="sourcePoint" />
            <mxPoint x="519" y="173" as="targetPoint" />
          </mxGeometry>
        </mxCell>
        <mxCell id="1ULtt0AO9vU7mEZM1UBC-492" value="" style="endArrow=none;html=1;rounded=0;strokeColor=#A8201A;fontColor=#143642;fillColor=#FAE5C7;" edge="1" parent="1">
          <mxGeometry width="50" height="50" relative="1" as="geometry">
            <mxPoint x="639" y="214" as="sourcePoint" />
            <mxPoint x="639" y="174" as="targetPoint" />
          </mxGeometry>
        </mxCell>
        <mxCell id="1ULtt0AO9vU7mEZM1UBC-500" style="edgeStyle=orthogonalEdgeStyle;rounded=0;orthogonalLoop=1;jettySize=auto;html=1;exitX=0.5;exitY=1;exitDx=0;exitDy=0;strokeColor=#A8201A;fontColor=#143642;fillColor=#FAE5C7;" edge="1" parent="1" source="1ULtt0AO9vU7mEZM1UBC-493">
          <mxGeometry relative="1" as="geometry">
            <mxPoint x="390" y="320" as="targetPoint" />
          </mxGeometry>
        </mxCell>
        <mxCell id="1ULtt0AO9vU7mEZM1UBC-493" value="Route 1" style="shape=hexagon;perimeter=hexagonPerimeter2;whiteSpace=wrap;html=1;fixedSize=1;strokeColor=#0F8B8D;fontColor=#143642;fillColor=#FAE5C7;" vertex="1" parent="1">
          <mxGeometry x="160" y="210" width="80" height="30" as="geometry" />
        </mxCell>
        <mxCell id="1ULtt0AO9vU7mEZM1UBC-501" style="edgeStyle=orthogonalEdgeStyle;rounded=0;orthogonalLoop=1;jettySize=auto;html=1;exitX=0.5;exitY=1;exitDx=0;exitDy=0;strokeColor=#A8201A;fontColor=#143642;fillColor=#FAE5C7;" edge="1" parent="1" source="1ULtt0AO9vU7mEZM1UBC-494">
          <mxGeometry relative="1" as="geometry">
            <mxPoint x="410" y="320" as="targetPoint" />
            <Array as="points">
              <mxPoint x="280" y="275" />
              <mxPoint x="410" y="275" />
              <mxPoint x="410" y="310" />
            </Array>
          </mxGeometry>
        </mxCell>
        <mxCell id="1ULtt0AO9vU7mEZM1UBC-494" value="Route 2" style="shape=hexagon;perimeter=hexagonPerimeter2;whiteSpace=wrap;html=1;fixedSize=1;strokeColor=#0F8B8D;fontColor=#143642;fillColor=#FAE5C7;" vertex="1" parent="1">
          <mxGeometry x="240" y="210" width="80" height="30" as="geometry" />
        </mxCell>
        <mxCell id="1ULtt0AO9vU7mEZM1UBC-502" style="edgeStyle=orthogonalEdgeStyle;rounded=0;orthogonalLoop=1;jettySize=auto;html=1;exitX=0.5;exitY=1;exitDx=0;exitDy=0;strokeColor=#A8201A;fontColor=#143642;fillColor=#FAE5C7;" edge="1" parent="1" source="1ULtt0AO9vU7mEZM1UBC-495">
          <mxGeometry relative="1" as="geometry">
            <mxPoint x="430" y="320" as="targetPoint" />
            <Array as="points">
              <mxPoint x="360" y="270" />
              <mxPoint x="430" y="270" />
            </Array>
          </mxGeometry>
        </mxCell>
        <mxCell id="1ULtt0AO9vU7mEZM1UBC-495" value="Route 3" style="shape=hexagon;perimeter=hexagonPerimeter2;whiteSpace=wrap;html=1;fixedSize=1;strokeColor=#0F8B8D;fontColor=#143642;fillColor=#FAE5C7;" vertex="1" parent="1">
          <mxGeometry x="320" y="210" width="80" height="30" as="geometry" />
        </mxCell>
        <mxCell id="1ULtt0AO9vU7mEZM1UBC-505" style="edgeStyle=orthogonalEdgeStyle;rounded=0;orthogonalLoop=1;jettySize=auto;html=1;exitX=0.5;exitY=1;exitDx=0;exitDy=0;strokeColor=#A8201A;fontColor=#143642;fillColor=#FAE5C7;" edge="1" parent="1" source="1ULtt0AO9vU7mEZM1UBC-496">
          <mxGeometry relative="1" as="geometry">
            <mxPoint x="450" y="320" as="targetPoint" />
          </mxGeometry>
        </mxCell>
        <mxCell id="1ULtt0AO9vU7mEZM1UBC-496" value="Route 4" style="shape=hexagon;perimeter=hexagonPerimeter2;whiteSpace=wrap;html=1;fixedSize=1;strokeColor=#0F8B8D;fontColor=#143642;fillColor=#FAE5C7;" vertex="1" parent="1">
          <mxGeometry x="398" y="210" width="80" height="30" as="geometry" />
        </mxCell>
        <mxCell id="1ULtt0AO9vU7mEZM1UBC-504" style="edgeStyle=orthogonalEdgeStyle;rounded=0;orthogonalLoop=1;jettySize=auto;html=1;exitX=0.5;exitY=1;exitDx=0;exitDy=0;strokeColor=#A8201A;fontColor=#143642;fillColor=#FAE5C7;" edge="1" parent="1" source="1ULtt0AO9vU7mEZM1UBC-497">
          <mxGeometry relative="1" as="geometry">
            <mxPoint x="470" y="320" as="targetPoint" />
          </mxGeometry>
        </mxCell>
        <mxCell id="1ULtt0AO9vU7mEZM1UBC-497" value="Route 5" style="shape=hexagon;perimeter=hexagonPerimeter2;whiteSpace=wrap;html=1;fixedSize=1;strokeColor=#0F8B8D;fontColor=#143642;fillColor=#FAE5C7;" vertex="1" parent="1">
          <mxGeometry x="478" y="210" width="80" height="30" as="geometry" />
        </mxCell>
        <mxCell id="1ULtt0AO9vU7mEZM1UBC-503" style="edgeStyle=orthogonalEdgeStyle;rounded=0;orthogonalLoop=1;jettySize=auto;html=1;exitX=0.5;exitY=1;exitDx=0;exitDy=0;strokeColor=#A8201A;fontColor=#143642;fillColor=#FAE5C7;" edge="1" parent="1" source="1ULtt0AO9vU7mEZM1UBC-498">
          <mxGeometry relative="1" as="geometry">
            <mxPoint x="480" y="320" as="targetPoint" />
          </mxGeometry>
        </mxCell>
        <mxCell id="1ULtt0AO9vU7mEZM1UBC-498" value="Route N" style="shape=hexagon;perimeter=hexagonPerimeter2;whiteSpace=wrap;html=1;fixedSize=1;strokeColor=#0F8B8D;fontColor=#143642;fillColor=#FAE5C7;" vertex="1" parent="1">
          <mxGeometry x="600" y="210" width="80" height="30" as="geometry" />
        </mxCell>
        <mxCell id="1ULtt0AO9vU7mEZM1UBC-499" value="" style="endArrow=none;dashed=1;html=1;rounded=0;strokeColor=#A8201A;fontColor=#143642;fillColor=#FAE5C7;" edge="1" parent="1">
          <mxGeometry width="50" height="50" relative="1" as="geometry">
            <mxPoint x="545" y="236" as="sourcePoint" />
            <mxPoint x="615" y="236" as="targetPoint" />
          </mxGeometry>
        </mxCell>
        <mxCell id="1ULtt0AO9vU7mEZM1UBC-508" style="edgeStyle=orthogonalEdgeStyle;rounded=0;orthogonalLoop=1;jettySize=auto;html=1;exitX=0.5;exitY=1;exitDx=0;exitDy=0;strokeColor=#A8201A;fontColor=#143642;fillColor=#FAE5C7;" edge="1" parent="1" source="1ULtt0AO9vU7mEZM1UBC-507">
          <mxGeometry relative="1" as="geometry">
            <mxPoint x="70" y="440" as="targetPoint" />
          </mxGeometry>
        </mxCell>
        <mxCell id="1ULtt0AO9vU7mEZM1UBC-510" style="edgeStyle=orthogonalEdgeStyle;rounded=0;orthogonalLoop=1;jettySize=auto;html=1;exitX=0.5;exitY=1;exitDx=0;exitDy=0;strokeColor=#A8201A;fontColor=#143642;fillColor=#FAE5C7;" edge="1" parent="1" source="1ULtt0AO9vU7mEZM1UBC-507">
          <mxGeometry relative="1" as="geometry">
            <mxPoint x="420" y="440" as="targetPoint" />
          </mxGeometry>
        </mxCell>
        <mxCell id="1ULtt0AO9vU7mEZM1UBC-511" style="edgeStyle=orthogonalEdgeStyle;rounded=0;orthogonalLoop=1;jettySize=auto;html=1;exitX=0.5;exitY=1;exitDx=0;exitDy=0;strokeColor=#A8201A;fontColor=#143642;fillColor=#FAE5C7;" edge="1" parent="1" source="1ULtt0AO9vU7mEZM1UBC-507">
          <mxGeometry relative="1" as="geometry">
            <mxPoint x="600" y="440" as="targetPoint" />
          </mxGeometry>
        </mxCell>
        <mxCell id="1ULtt0AO9vU7mEZM1UBC-513" style="edgeStyle=orthogonalEdgeStyle;rounded=0;orthogonalLoop=1;jettySize=auto;html=1;exitX=0.5;exitY=1;exitDx=0;exitDy=0;strokeColor=#A8201A;fontColor=#143642;fillColor=#FAE5C7;" edge="1" parent="1" source="1ULtt0AO9vU7mEZM1UBC-507">
          <mxGeometry relative="1" as="geometry">
            <mxPoint x="750" y="440" as="targetPoint" />
          </mxGeometry>
        </mxCell>
        <mxCell id="1ULtt0AO9vU7mEZM1UBC-519" style="edgeStyle=orthogonalEdgeStyle;rounded=0;orthogonalLoop=1;jettySize=auto;html=1;exitX=0.5;exitY=1;exitDx=0;exitDy=0;entryX=0.5;entryY=0;entryDx=0;entryDy=0;strokeColor=#A8201A;fontColor=#143642;fillColor=#FAE5C7;" edge="1" parent="1" source="1ULtt0AO9vU7mEZM1UBC-507" target="1ULtt0AO9vU7mEZM1UBC-515">
          <mxGeometry relative="1" as="geometry" />
        </mxCell>
        <mxCell id="1ULtt0AO9vU7mEZM1UBC-507" value="&lt;font style=&quot;font-size: 18px;&quot;&gt;Modules&lt;/font&gt;" style="shape=process;whiteSpace=wrap;html=1;backgroundOutline=1;strokeColor=#56517e;fillColor=#A9C4EB;" vertex="1" parent="1">
          <mxGeometry x="370" y="320" width="120" height="50" as="geometry" />
        </mxCell>
        <mxCell id="1ULtt0AO9vU7mEZM1UBC-522" style="rounded=0;orthogonalLoop=1;jettySize=auto;html=1;exitX=0.5;exitY=1;exitDx=0;exitDy=0;strokeColor=#A8201A;fontColor=#143642;fillColor=#FAE5C7;endArrow=oval;endFill=1;" edge="1" parent="1" source="1ULtt0AO9vU7mEZM1UBC-514">
          <mxGeometry relative="1" as="geometry">
            <mxPoint x="10" y="510" as="targetPoint" />
            <Array as="points">
              <mxPoint x="70" y="500" />
            </Array>
          </mxGeometry>
        </mxCell>
        <mxCell id="1ULtt0AO9vU7mEZM1UBC-514" value="Type of Cargo" style="ellipse;whiteSpace=wrap;html=1;strokeColor=#56517e;fillColor=#FFCE9F;" vertex="1" parent="1">
          <mxGeometry x="10" y="440" width="120" height="40" as="geometry" />
        </mxCell>
        <mxCell id="1ULtt0AO9vU7mEZM1UBC-515" value="Weather&amp;nbsp;" style="ellipse;whiteSpace=wrap;html=1;strokeColor=#56517e;fillColor=#FFCE9F;" vertex="1" parent="1">
          <mxGeometry x="180" y="440" width="120" height="40" as="geometry" />
        </mxCell>
        <mxCell id="1ULtt0AO9vU7mEZM1UBC-516" value="Fuel" style="ellipse;whiteSpace=wrap;html=1;strokeColor=#56517e;fillColor=#FFCE9F;" vertex="1" parent="1">
          <mxGeometry x="358" y="440" width="120" height="40" as="geometry" />
        </mxCell>
        <mxCell id="1ULtt0AO9vU7mEZM1UBC-517" value="Cost" style="ellipse;whiteSpace=wrap;html=1;strokeColor=#56517e;fillColor=#FFCE9F;" vertex="1" parent="1">
          <mxGeometry x="530" y="440" width="120" height="40" as="geometry" />
        </mxCell>
        <mxCell id="1ULtt0AO9vU7mEZM1UBC-518" value="Safety" style="ellipse;whiteSpace=wrap;html=1;strokeColor=#56517e;fillColor=#FFCE9F;" vertex="1" parent="1">
          <mxGeometry x="680" y="440" width="120" height="40" as="geometry" />
        </mxCell>
        <mxCell id="1ULtt0AO9vU7mEZM1UBC-523" value="" style="endArrow=none;html=1;rounded=0;strokeColor=#A8201A;fontColor=#143642;fillColor=#FAE5C7;" edge="1" parent="1">
          <mxGeometry width="50" height="50" relative="1" as="geometry">
            <mxPoint x="10" y="640" as="sourcePoint" />
            <mxPoint x="10" y="510" as="targetPoint" />
          </mxGeometry>
        </mxCell>
        <mxCell id="1ULtt0AO9vU7mEZM1UBC-525" value="" style="endArrow=classic;html=1;rounded=0;strokeColor=#A8201A;fontColor=#143642;fillColor=#FAE5C7;" edge="1" parent="1">
          <mxGeometry width="50" height="50" relative="1" as="geometry">
            <mxPoint x="10" y="534.77" as="sourcePoint" />
            <mxPoint x="40" y="534.77" as="targetPoint" />
          </mxGeometry>
        </mxCell>
        <mxCell id="1ULtt0AO9vU7mEZM1UBC-526" value="" style="endArrow=classic;html=1;rounded=0;strokeColor=#A8201A;fontColor=#143642;fillColor=#FAE5C7;" edge="1" parent="1">
          <mxGeometry width="50" height="50" relative="1" as="geometry">
            <mxPoint x="10" y="564.77" as="sourcePoint" />
            <mxPoint x="40" y="564.77" as="targetPoint" />
          </mxGeometry>
        </mxCell>
        <mxCell id="1ULtt0AO9vU7mEZM1UBC-527" value="" style="endArrow=classic;html=1;rounded=0;strokeColor=#A8201A;fontColor=#143642;fillColor=#FAE5C7;" edge="1" parent="1">
          <mxGeometry width="50" height="50" relative="1" as="geometry">
            <mxPoint x="10" y="594.77" as="sourcePoint" />
            <mxPoint x="40" y="594.77" as="targetPoint" />
          </mxGeometry>
        </mxCell>
        <mxCell id="1ULtt0AO9vU7mEZM1UBC-533" style="edgeStyle=orthogonalEdgeStyle;rounded=0;orthogonalLoop=1;jettySize=auto;html=1;exitX=1;exitY=0.5;exitDx=0;exitDy=0;strokeColor=#A8201A;fontColor=#143642;fillColor=#FAE5C7;" edge="1" parent="1" source="1ULtt0AO9vU7mEZM1UBC-529">
          <mxGeometry relative="1" as="geometry">
            <mxPoint x="150" y="580" as="targetPoint" />
          </mxGeometry>
        </mxCell>
        <mxCell id="1ULtt0AO9vU7mEZM1UBC-529" value="Solid" style="rhombus;whiteSpace=wrap;html=1;strokeColor=#0F8B8D;fontColor=#143642;fillColor=#FFCCE6;" vertex="1" parent="1">
          <mxGeometry x="40" y="520" width="80" height="30" as="geometry" />
        </mxCell>
        <mxCell id="1ULtt0AO9vU7mEZM1UBC-530" value="Liquid" style="rhombus;whiteSpace=wrap;html=1;strokeColor=#0F8B8D;fontColor=#143642;fillColor=#FFCCE6;" vertex="1" parent="1">
          <mxGeometry x="40" y="550" width="80" height="30" as="geometry" />
        </mxCell>
        <mxCell id="1ULtt0AO9vU7mEZM1UBC-531" value="Gaseous" style="rhombus;whiteSpace=wrap;html=1;strokeColor=#0F8B8D;fontColor=#143642;fillColor=#FFCCE6;" vertex="1" parent="1">
          <mxGeometry x="40" y="580" width="80" height="30" as="geometry" />
        </mxCell>
        <mxCell id="1ULtt0AO9vU7mEZM1UBC-544" style="edgeStyle=orthogonalEdgeStyle;rounded=0;orthogonalLoop=1;jettySize=auto;html=1;exitX=0;exitY=0;exitDx=0;exitDy=0;entryX=0;entryY=0.5;entryDx=0;entryDy=0;strokeColor=#A8201A;fontColor=#143642;fillColor=#FAE5C7;" edge="1" parent="1" source="1ULtt0AO9vU7mEZM1UBC-537" target="1ULtt0AO9vU7mEZM1UBC-515">
          <mxGeometry relative="1" as="geometry" />
        </mxCell>
        <mxCell id="1ULtt0AO9vU7mEZM1UBC-537" value="Routes 1,2,3....N" style="ellipse;whiteSpace=wrap;html=1;aspect=fixed;strokeColor=#0F8B8D;fontColor=#143642;fillColor=#FAE5C7;direction=south;" vertex="1" parent="1">
          <mxGeometry x="130" y="580" width="50" height="50" as="geometry" />
        </mxCell>
        <mxCell id="1ULtt0AO9vU7mEZM1UBC-540" style="edgeStyle=orthogonalEdgeStyle;rounded=0;orthogonalLoop=1;jettySize=auto;html=1;exitX=1;exitY=0.5;exitDx=0;exitDy=0;entryX=0.067;entryY=0.807;entryDx=0;entryDy=0;entryPerimeter=0;strokeColor=#A8201A;fontColor=#143642;fillColor=#FAE5C7;" edge="1" parent="1" source="1ULtt0AO9vU7mEZM1UBC-530" target="1ULtt0AO9vU7mEZM1UBC-537">
          <mxGeometry relative="1" as="geometry" />
        </mxCell>
        <mxCell id="1ULtt0AO9vU7mEZM1UBC-545" style="rounded=0;orthogonalLoop=1;jettySize=auto;html=1;exitX=0.5;exitY=1;exitDx=0;exitDy=0;strokeColor=#A8201A;fontColor=#143642;fillColor=#FAE5C7;endArrow=oval;endFill=1;" edge="1" parent="1">
          <mxGeometry relative="1" as="geometry">
            <mxPoint x="200" y="500" as="targetPoint" />
            <mxPoint x="240" y="480" as="sourcePoint" />
            <Array as="points">
              <mxPoint x="240" y="500" />
            </Array>
          </mxGeometry>
        </mxCell>
        <mxCell id="1ULtt0AO9vU7mEZM1UBC-546" value="" style="endArrow=none;html=1;rounded=0;strokeColor=#A8201A;fontColor=#143642;fillColor=#FAE5C7;" edge="1" parent="1">
          <mxGeometry width="50" height="50" relative="1" as="geometry">
            <mxPoint x="200" y="640" as="sourcePoint" />
            <mxPoint x="200" y="500" as="targetPoint" />
          </mxGeometry>
        </mxCell>
        <mxCell id="1ULtt0AO9vU7mEZM1UBC-547" value="" style="endArrow=classic;html=1;rounded=0;strokeColor=#A8201A;fontColor=#143642;fillColor=#FAE5C7;" edge="1" parent="1">
          <mxGeometry width="50" height="50" relative="1" as="geometry">
            <mxPoint x="200" y="530" as="sourcePoint" />
            <mxPoint x="230" y="530" as="targetPoint" />
          </mxGeometry>
        </mxCell>
        <mxCell id="1ULtt0AO9vU7mEZM1UBC-548" value="" style="endArrow=classic;html=1;rounded=0;strokeColor=#A8201A;fontColor=#143642;fillColor=#FAE5C7;" edge="1" parent="1">
          <mxGeometry width="50" height="50" relative="1" as="geometry">
            <mxPoint x="200" y="559.55" as="sourcePoint" />
            <mxPoint x="230" y="559.55" as="targetPoint" />
          </mxGeometry>
        </mxCell>
        <mxCell id="1ULtt0AO9vU7mEZM1UBC-549" value="" style="endArrow=classic;html=1;rounded=0;strokeColor=#A8201A;fontColor=#143642;fillColor=#FAE5C7;" edge="1" parent="1">
          <mxGeometry width="50" height="50" relative="1" as="geometry">
            <mxPoint x="200" y="589.55" as="sourcePoint" />
            <mxPoint x="230" y="589.55" as="targetPoint" />
          </mxGeometry>
        </mxCell>
        <mxCell id="1ULtt0AO9vU7mEZM1UBC-561" style="edgeStyle=orthogonalEdgeStyle;rounded=0;orthogonalLoop=1;jettySize=auto;html=1;exitX=1;exitY=0.5;exitDx=0;exitDy=0;entryX=0;entryY=0.5;entryDx=0;entryDy=0;strokeColor=#A8201A;fontColor=#143642;fillColor=#FAE5C7;" edge="1" parent="1" source="1ULtt0AO9vU7mEZM1UBC-550" target="1ULtt0AO9vU7mEZM1UBC-560">
          <mxGeometry relative="1" as="geometry" />
        </mxCell>
        <mxCell id="1ULtt0AO9vU7mEZM1UBC-550" value="Winds" style="rhombus;whiteSpace=wrap;html=1;strokeColor=#0F8B8D;fontColor=#143642;fillColor=#FFCCE6;" vertex="1" parent="1">
          <mxGeometry x="229" y="515" width="80" height="30" as="geometry" />
        </mxCell>
        <mxCell id="1ULtt0AO9vU7mEZM1UBC-552" value="" style="endArrow=none;html=1;rounded=0;strokeColor=#A8201A;fontColor=#143642;fillColor=#FAE5C7;" edge="1" parent="1">
          <mxGeometry width="50" height="50" relative="1" as="geometry">
            <mxPoint x="120" y="620" as="sourcePoint" />
            <mxPoint x="120" y="594" as="targetPoint" />
          </mxGeometry>
        </mxCell>
        <mxCell id="1ULtt0AO9vU7mEZM1UBC-553" value="" style="endArrow=classic;html=1;rounded=0;strokeColor=#A8201A;fontColor=#143642;fillColor=#FAE5C7;entryX=0.79;entryY=0.893;entryDx=0;entryDy=0;entryPerimeter=0;" edge="1" parent="1" target="1ULtt0AO9vU7mEZM1UBC-537">
          <mxGeometry width="50" height="50" relative="1" as="geometry">
            <mxPoint x="120" y="620" as="sourcePoint" />
            <mxPoint x="190" y="620" as="targetPoint" />
          </mxGeometry>
        </mxCell>
        <mxCell id="1ULtt0AO9vU7mEZM1UBC-562" style="edgeStyle=orthogonalEdgeStyle;rounded=0;orthogonalLoop=1;jettySize=auto;html=1;exitX=1;exitY=0.5;exitDx=0;exitDy=0;entryX=0;entryY=1;entryDx=0;entryDy=0;strokeColor=#A8201A;fontColor=#143642;fillColor=#FAE5C7;" edge="1" parent="1" source="1ULtt0AO9vU7mEZM1UBC-554" target="1ULtt0AO9vU7mEZM1UBC-560">
          <mxGeometry relative="1" as="geometry" />
        </mxCell>
        <mxCell id="1ULtt0AO9vU7mEZM1UBC-554" value="Currents" style="rhombus;whiteSpace=wrap;html=1;strokeColor=#0F8B8D;fontColor=#143642;fillColor=#FFCCE6;" vertex="1" parent="1">
          <mxGeometry x="229" y="545" width="80" height="30" as="geometry" />
        </mxCell>
        <mxCell id="1ULtt0AO9vU7mEZM1UBC-563" style="edgeStyle=orthogonalEdgeStyle;rounded=0;orthogonalLoop=1;jettySize=auto;html=1;exitX=1;exitY=0.5;exitDx=0;exitDy=0;entryX=0.5;entryY=1;entryDx=0;entryDy=0;strokeColor=#A8201A;fontColor=#143642;fillColor=#FAE5C7;" edge="1" parent="1" source="1ULtt0AO9vU7mEZM1UBC-556" target="1ULtt0AO9vU7mEZM1UBC-560">
          <mxGeometry relative="1" as="geometry" />
        </mxCell>
        <mxCell id="1ULtt0AO9vU7mEZM1UBC-556" value="Tides" style="rhombus;whiteSpace=wrap;html=1;strokeColor=#0F8B8D;fontColor=#143642;fillColor=#FFCCE6;" vertex="1" parent="1">
          <mxGeometry x="229" y="575" width="80" height="30" as="geometry" />
        </mxCell>
        <mxCell id="1ULtt0AO9vU7mEZM1UBC-564" style="edgeStyle=orthogonalEdgeStyle;rounded=0;orthogonalLoop=1;jettySize=auto;html=1;exitX=1;exitY=0.5;exitDx=0;exitDy=0;entryX=1;entryY=0.5;entryDx=0;entryDy=0;strokeColor=#A8201A;fontColor=#143642;fillColor=#FAE5C7;" edge="1" parent="1" source="1ULtt0AO9vU7mEZM1UBC-557" target="1ULtt0AO9vU7mEZM1UBC-560">
          <mxGeometry relative="1" as="geometry">
            <Array as="points">
              <mxPoint x="309" y="630" />
              <mxPoint x="345" y="630" />
            </Array>
          </mxGeometry>
        </mxCell>
        <mxCell id="1ULtt0AO9vU7mEZM1UBC-557" value="Pressure" style="rhombus;whiteSpace=wrap;html=1;strokeColor=#0F8B8D;fontColor=#143642;fillColor=#FFCCE6;" vertex="1" parent="1">
          <mxGeometry x="229" y="605" width="80" height="30" as="geometry" />
        </mxCell>
        <mxCell id="1ULtt0AO9vU7mEZM1UBC-558" value="" style="endArrow=classic;html=1;rounded=0;strokeColor=#A8201A;fontColor=#143642;fillColor=#FAE5C7;" edge="1" parent="1">
          <mxGeometry width="50" height="50" relative="1" as="geometry">
            <mxPoint x="199" y="619.8" as="sourcePoint" />
            <mxPoint x="229" y="619.8" as="targetPoint" />
          </mxGeometry>
        </mxCell>
        <mxCell id="1ULtt0AO9vU7mEZM1UBC-560" value="Routes 1,2,3....N" style="ellipse;whiteSpace=wrap;html=1;aspect=fixed;strokeColor=#0F8B8D;fontColor=#143642;fillColor=#FAE5C7;direction=south;" vertex="1" parent="1">
          <mxGeometry x="320" y="565" width="50" height="50" as="geometry" />
        </mxCell>
        <mxCell id="1ULtt0AO9vU7mEZM1UBC-566" style="edgeStyle=orthogonalEdgeStyle;rounded=0;orthogonalLoop=1;jettySize=auto;html=1;exitX=0;exitY=0;exitDx=0;exitDy=0;strokeColor=#A8201A;fontColor=#143642;fillColor=#FAE5C7;" edge="1" parent="1" source="1ULtt0AO9vU7mEZM1UBC-560">
          <mxGeometry relative="1" as="geometry">
            <mxPoint x="330" y="534.48" as="sourcePoint" />
            <mxPoint x="370" y="449.96000000000004" as="targetPoint" />
            <Array as="points">
              <mxPoint x="363" y="535" />
              <mxPoint x="350" y="535" />
              <mxPoint x="350" y="430" />
              <mxPoint x="370" y="430" />
            </Array>
          </mxGeometry>
        </mxCell>
        <mxCell id="1ULtt0AO9vU7mEZM1UBC-567" style="rounded=0;orthogonalLoop=1;jettySize=auto;html=1;exitX=0.5;exitY=1;exitDx=0;exitDy=0;strokeColor=#A8201A;fontColor=#143642;fillColor=#FAE5C7;endArrow=oval;endFill=1;" edge="1" parent="1">
          <mxGeometry relative="1" as="geometry">
            <mxPoint x="378" y="500" as="targetPoint" />
            <mxPoint x="418" y="480" as="sourcePoint" />
            <Array as="points">
              <mxPoint x="418" y="500" />
            </Array>
          </mxGeometry>
        </mxCell>
        <mxCell id="1ULtt0AO9vU7mEZM1UBC-568" value="" style="endArrow=none;html=1;rounded=0;strokeColor=#A8201A;fontColor=#143642;fillColor=#FAE5C7;" edge="1" parent="1">
          <mxGeometry width="50" height="50" relative="1" as="geometry">
            <mxPoint x="380" y="660" as="sourcePoint" />
            <mxPoint x="378" y="499" as="targetPoint" />
          </mxGeometry>
        </mxCell>
        <mxCell id="1ULtt0AO9vU7mEZM1UBC-569" value="" style="endArrow=classic;html=1;rounded=0;strokeColor=#A8201A;fontColor=#143642;fillColor=#FAE5C7;" edge="1" parent="1">
          <mxGeometry width="50" height="50" relative="1" as="geometry">
            <mxPoint x="378" y="520" as="sourcePoint" />
            <mxPoint x="408" y="520" as="targetPoint" />
          </mxGeometry>
        </mxCell>
        <mxCell id="1ULtt0AO9vU7mEZM1UBC-578" style="edgeStyle=orthogonalEdgeStyle;rounded=0;orthogonalLoop=1;jettySize=auto;html=1;exitX=1;exitY=0.5;exitDx=0;exitDy=0;entryX=0;entryY=0.5;entryDx=0;entryDy=0;strokeColor=#A8201A;fontColor=#143642;fillColor=#FAE5C7;" edge="1" parent="1" source="1ULtt0AO9vU7mEZM1UBC-570" target="1ULtt0AO9vU7mEZM1UBC-577">
          <mxGeometry relative="1" as="geometry" />
        </mxCell>
        <mxCell id="1ULtt0AO9vU7mEZM1UBC-570" value="Least" style="rhombus;whiteSpace=wrap;html=1;strokeColor=#0F8B8D;fontColor=#143642;fillColor=#FFCCE6;" vertex="1" parent="1">
          <mxGeometry x="408" y="506" width="80" height="30" as="geometry" />
        </mxCell>
        <mxCell id="1ULtt0AO9vU7mEZM1UBC-579" style="edgeStyle=orthogonalEdgeStyle;rounded=0;orthogonalLoop=1;jettySize=auto;html=1;exitX=1;exitY=0.5;exitDx=0;exitDy=0;entryX=0;entryY=1;entryDx=0;entryDy=0;strokeColor=#A8201A;fontColor=#143642;fillColor=#FAE5C7;" edge="1" parent="1" source="1ULtt0AO9vU7mEZM1UBC-571" target="1ULtt0AO9vU7mEZM1UBC-577">
          <mxGeometry relative="1" as="geometry" />
        </mxCell>
        <mxCell id="1ULtt0AO9vU7mEZM1UBC-571" value="Re-Fuel Stations" style="rhombus;whiteSpace=wrap;html=1;strokeColor=#0F8B8D;fontColor=#143642;fillColor=#FFCCE6;" vertex="1" parent="1">
          <mxGeometry x="408" y="536" width="80" height="64" as="geometry" />
        </mxCell>
        <mxCell id="1ULtt0AO9vU7mEZM1UBC-572" value="" style="endArrow=classic;html=1;rounded=0;strokeColor=#A8201A;fontColor=#143642;fillColor=#FAE5C7;" edge="1" parent="1">
          <mxGeometry width="50" height="50" relative="1" as="geometry">
            <mxPoint x="378" y="567.52" as="sourcePoint" />
            <mxPoint x="408" y="567.52" as="targetPoint" />
          </mxGeometry>
        </mxCell>
        <mxCell id="1ULtt0AO9vU7mEZM1UBC-573" value="" style="endArrow=classic;html=1;rounded=0;strokeColor=#A8201A;fontColor=#143642;fillColor=#FAE5C7;" edge="1" parent="1">
          <mxGeometry width="50" height="50" relative="1" as="geometry">
            <mxPoint x="379" y="629" as="sourcePoint" />
            <mxPoint x="409" y="629" as="targetPoint" />
          </mxGeometry>
        </mxCell>
        <mxCell id="1ULtt0AO9vU7mEZM1UBC-580" style="edgeStyle=orthogonalEdgeStyle;rounded=0;orthogonalLoop=1;jettySize=auto;html=1;exitX=1;exitY=0.5;exitDx=0;exitDy=0;entryX=1;entryY=0.5;entryDx=0;entryDy=0;strokeColor=#A8201A;fontColor=#143642;fillColor=#FAE5C7;" edge="1" parent="1" source="1ULtt0AO9vU7mEZM1UBC-574" target="1ULtt0AO9vU7mEZM1UBC-577">
          <mxGeometry relative="1" as="geometry" />
        </mxCell>
        <mxCell id="1ULtt0AO9vU7mEZM1UBC-574" value="Less&lt;div&gt;&amp;nbsp;Pollution&lt;/div&gt;" style="rhombus;whiteSpace=wrap;html=1;strokeColor=#0F8B8D;fontColor=#143642;fillColor=#FFCCE6;" vertex="1" parent="1">
          <mxGeometry x="408" y="600" width="80" height="60" as="geometry" />
        </mxCell>
        <mxCell id="1ULtt0AO9vU7mEZM1UBC-577" value="Routes 1,2,3....N" style="ellipse;whiteSpace=wrap;html=1;aspect=fixed;strokeColor=#0F8B8D;fontColor=#143642;fillColor=#FAE5C7;direction=south;" vertex="1" parent="1">
          <mxGeometry x="490" y="570" width="50" height="50" as="geometry" />
        </mxCell>
        <mxCell id="1ULtt0AO9vU7mEZM1UBC-581" style="edgeStyle=orthogonalEdgeStyle;rounded=0;orthogonalLoop=1;jettySize=auto;html=1;strokeColor=#A8201A;fontColor=#143642;fillColor=#FAE5C7;entryX=0.258;entryY=-0.002;entryDx=0;entryDy=0;entryPerimeter=0;" edge="1" parent="1" target="1ULtt0AO9vU7mEZM1UBC-517">
          <mxGeometry relative="1" as="geometry">
            <mxPoint x="520" y="570" as="sourcePoint" />
            <mxPoint x="560" y="420" as="targetPoint" />
            <Array as="points">
              <mxPoint x="520" y="420" />
              <mxPoint x="560" y="420" />
              <mxPoint x="560" y="440" />
            </Array>
          </mxGeometry>
        </mxCell>
        <mxCell id="1ULtt0AO9vU7mEZM1UBC-582" style="rounded=0;orthogonalLoop=1;jettySize=auto;html=1;exitX=0.5;exitY=1;exitDx=0;exitDy=0;strokeColor=#A8201A;fontColor=#143642;fillColor=#FAE5C7;endArrow=oval;endFill=1;" edge="1" parent="1">
          <mxGeometry relative="1" as="geometry">
            <mxPoint x="550" y="500" as="targetPoint" />
            <mxPoint x="598" y="480" as="sourcePoint" />
            <Array as="points">
              <mxPoint x="598" y="500" />
            </Array>
          </mxGeometry>
        </mxCell>
        <mxCell id="1ULtt0AO9vU7mEZM1UBC-583" value="" style="endArrow=none;html=1;rounded=0;strokeColor=#A8201A;fontColor=#143642;fillColor=#FAE5C7;" edge="1" parent="1">
          <mxGeometry width="50" height="50" relative="1" as="geometry">
            <mxPoint x="552" y="670" as="sourcePoint" />
            <mxPoint x="550" y="499" as="targetPoint" />
          </mxGeometry>
        </mxCell>
        <mxCell id="1ULtt0AO9vU7mEZM1UBC-584" value="" style="endArrow=classic;html=1;rounded=0;strokeColor=#A8201A;fontColor=#143642;fillColor=#FAE5C7;" edge="1" parent="1">
          <mxGeometry width="50" height="50" relative="1" as="geometry">
            <mxPoint x="550" y="532" as="sourcePoint" />
            <mxPoint x="575" y="531.63" as="targetPoint" />
          </mxGeometry>
        </mxCell>
        <mxCell id="1ULtt0AO9vU7mEZM1UBC-594" style="edgeStyle=orthogonalEdgeStyle;rounded=0;orthogonalLoop=1;jettySize=auto;html=1;exitX=1;exitY=0.5;exitDx=0;exitDy=0;entryX=0;entryY=0.5;entryDx=0;entryDy=0;strokeColor=#A8201A;fontColor=#143642;fillColor=#FAE5C7;" edge="1" parent="1" source="1ULtt0AO9vU7mEZM1UBC-586">
          <mxGeometry relative="1" as="geometry">
            <mxPoint x="680" y="582" as="targetPoint" />
          </mxGeometry>
        </mxCell>
        <mxCell id="1ULtt0AO9vU7mEZM1UBC-586" value="Fuel Cost" style="rhombus;whiteSpace=wrap;html=1;strokeColor=#0F8B8D;fontColor=#143642;fillColor=#FFCCE6;" vertex="1" parent="1">
          <mxGeometry x="575" y="509" width="80" height="45" as="geometry" />
        </mxCell>
        <mxCell id="1ULtt0AO9vU7mEZM1UBC-595" style="edgeStyle=orthogonalEdgeStyle;rounded=0;orthogonalLoop=1;jettySize=auto;html=1;exitX=1;exitY=0.5;exitDx=0;exitDy=0;entryX=0.5;entryY=1;entryDx=0;entryDy=0;strokeColor=#A8201A;fontColor=#143642;fillColor=#FAE5C7;" edge="1" parent="1" source="1ULtt0AO9vU7mEZM1UBC-587">
          <mxGeometry relative="1" as="geometry">
            <mxPoint x="655" y="607" as="targetPoint" />
            <Array as="points">
              <mxPoint x="637" y="582" />
              <mxPoint x="637" y="607" />
            </Array>
          </mxGeometry>
        </mxCell>
        <mxCell id="1ULtt0AO9vU7mEZM1UBC-587" value="Supply&amp;nbsp;&lt;div&gt;Cost&lt;/div&gt;" style="rhombus;whiteSpace=wrap;html=1;strokeColor=#0F8B8D;fontColor=#143642;fillColor=#FFCCE6;" vertex="1" parent="1">
          <mxGeometry x="575" y="554" width="80" height="55" as="geometry" />
        </mxCell>
        <mxCell id="1ULtt0AO9vU7mEZM1UBC-588" value="" style="endArrow=classic;html=1;rounded=0;strokeColor=#A8201A;fontColor=#143642;fillColor=#FAE5C7;" edge="1" parent="1">
          <mxGeometry width="50" height="50" relative="1" as="geometry">
            <mxPoint x="550" y="581" as="sourcePoint" />
            <mxPoint x="576" y="581.26" as="targetPoint" />
          </mxGeometry>
        </mxCell>
        <mxCell id="1ULtt0AO9vU7mEZM1UBC-592" style="edgeStyle=orthogonalEdgeStyle;rounded=0;orthogonalLoop=1;jettySize=auto;html=1;exitX=1;exitY=0.5;exitDx=0;exitDy=0;entryX=1;entryY=0.5;entryDx=0;entryDy=0;strokeColor=#A8201A;fontColor=#143642;fillColor=#FAE5C7;" edge="1" parent="1" source="1ULtt0AO9vU7mEZM1UBC-589">
          <mxGeometry relative="1" as="geometry">
            <mxPoint x="680" y="632" as="targetPoint" />
          </mxGeometry>
        </mxCell>
        <mxCell id="1ULtt0AO9vU7mEZM1UBC-589" value="Emergency&lt;div&gt;Boats&lt;/div&gt;" style="rhombus;whiteSpace=wrap;html=1;strokeColor=#0F8B8D;fontColor=#143642;fillColor=#FFCCE6;" vertex="1" parent="1">
          <mxGeometry x="569" y="609" width="92" height="70" as="geometry" />
        </mxCell>
        <mxCell id="1ULtt0AO9vU7mEZM1UBC-590" value="" style="endArrow=classic;html=1;rounded=0;strokeColor=#A8201A;fontColor=#143642;fillColor=#FAE5C7;" edge="1" parent="1">
          <mxGeometry width="50" height="50" relative="1" as="geometry">
            <mxPoint x="550" y="645" as="sourcePoint" />
            <mxPoint x="576" y="644.63" as="targetPoint" />
          </mxGeometry>
        </mxCell>
        <mxCell id="1ULtt0AO9vU7mEZM1UBC-591" value="Routes 1,2,3....N" style="ellipse;whiteSpace=wrap;html=1;aspect=fixed;strokeColor=#0F8B8D;fontColor=#143642;fillColor=#FAE5C7;direction=south;" vertex="1" parent="1">
          <mxGeometry x="655" y="580" width="50" height="50" as="geometry" />
        </mxCell>
        <mxCell id="1ULtt0AO9vU7mEZM1UBC-596" style="edgeStyle=orthogonalEdgeStyle;rounded=0;orthogonalLoop=1;jettySize=auto;html=1;exitX=0.057;exitY=0.299;exitDx=0;exitDy=0;entryX=0.254;entryY=0;entryDx=0;entryDy=0;entryPerimeter=0;strokeColor=#A8201A;fontColor=#143642;fillColor=#FAE5C7;exitPerimeter=0;" edge="1" parent="1" source="1ULtt0AO9vU7mEZM1UBC-591" target="1ULtt0AO9vU7mEZM1UBC-518">
          <mxGeometry relative="1" as="geometry">
            <Array as="points">
              <mxPoint x="690" y="520" />
              <mxPoint x="680" y="520" />
              <mxPoint x="680" y="420" />
              <mxPoint x="711" y="420" />
            </Array>
          </mxGeometry>
        </mxCell>
        <mxCell id="1ULtt0AO9vU7mEZM1UBC-597" value="Weather&amp;nbsp;" style="rhombus;whiteSpace=wrap;html=1;strokeColor=#0F8B8D;fontColor=#143642;fillColor=#FFCCE6;" vertex="1" parent="1">
          <mxGeometry x="730" y="522.5" width="80" height="27.5" as="geometry" />
        </mxCell>
        <mxCell id="1ULtt0AO9vU7mEZM1UBC-598" style="rounded=0;orthogonalLoop=1;jettySize=auto;html=1;exitX=0.5;exitY=1;exitDx=0;exitDy=0;strokeColor=#A8201A;fontColor=#143642;fillColor=#FAE5C7;endArrow=oval;endFill=1;" edge="1" parent="1">
          <mxGeometry relative="1" as="geometry">
            <mxPoint x="710" y="500" as="targetPoint" />
            <mxPoint x="758" y="480" as="sourcePoint" />
            <Array as="points">
              <mxPoint x="758" y="500" />
            </Array>
          </mxGeometry>
        </mxCell>
        <mxCell id="1ULtt0AO9vU7mEZM1UBC-599" value="" style="endArrow=none;html=1;rounded=0;strokeColor=#A8201A;fontColor=#143642;fillColor=#FAE5C7;" edge="1" parent="1">
          <mxGeometry width="50" height="50" relative="1" as="geometry">
            <mxPoint x="712" y="670" as="sourcePoint" />
            <mxPoint x="710" y="499" as="targetPoint" />
          </mxGeometry>
        </mxCell>
        <mxCell id="1ULtt0AO9vU7mEZM1UBC-600" value="" style="endArrow=classic;html=1;rounded=0;strokeColor=#A8201A;fontColor=#143642;fillColor=#FAE5C7;" edge="1" parent="1">
          <mxGeometry width="50" height="50" relative="1" as="geometry">
            <mxPoint x="710" y="536" as="sourcePoint" />
            <mxPoint x="730" y="536" as="targetPoint" />
          </mxGeometry>
        </mxCell>
        <mxCell id="1ULtt0AO9vU7mEZM1UBC-602" value="Pirate&amp;nbsp;&lt;div&gt;Attack&lt;/div&gt;" style="rhombus;whiteSpace=wrap;html=1;strokeColor=#0F8B8D;fontColor=#143642;fillColor=#FFCCE6;" vertex="1" parent="1">
          <mxGeometry x="730" y="557" width="80" height="43" as="geometry" />
        </mxCell>
        <mxCell id="1ULtt0AO9vU7mEZM1UBC-603" value="Medical&lt;div&gt;Emergency&lt;/div&gt;" style="rhombus;whiteSpace=wrap;html=1;strokeColor=#0F8B8D;fontColor=#143642;fillColor=#FFCCE6;" vertex="1" parent="1">
          <mxGeometry x="720" y="609" width="100" height="61" as="geometry" />
        </mxCell>
        <mxCell id="1ULtt0AO9vU7mEZM1UBC-604" value="" style="endArrow=classic;html=1;rounded=0;strokeColor=#A8201A;fontColor=#143642;fillColor=#FAE5C7;" edge="1" parent="1">
          <mxGeometry width="50" height="50" relative="1" as="geometry">
            <mxPoint x="710" y="578.17" as="sourcePoint" />
            <mxPoint x="730" y="578.17" as="targetPoint" />
          </mxGeometry>
        </mxCell>
        <mxCell id="1ULtt0AO9vU7mEZM1UBC-605" value="" style="endArrow=classic;html=1;rounded=0;strokeColor=#A8201A;fontColor=#143642;fillColor=#FAE5C7;" edge="1" parent="1">
          <mxGeometry width="50" height="50" relative="1" as="geometry">
            <mxPoint x="710" y="639.17" as="sourcePoint" />
            <mxPoint x="730" y="639.17" as="targetPoint" />
          </mxGeometry>
        </mxCell>
        <mxCell id="1ULtt0AO9vU7mEZM1UBC-606" value="" style="endArrow=classic;html=1;rounded=0;strokeColor=#A8201A;fontColor=#143642;fillColor=#FAE5C7;entryX=0;entryY=0;entryDx=0;entryDy=0;" edge="1" parent="1" source="1ULtt0AO9vU7mEZM1UBC-614" target="1ULtt0AO9vU7mEZM1UBC-612">
          <mxGeometry width="50" height="50" relative="1" as="geometry">
            <mxPoint x="10" y="639" as="sourcePoint" />
            <mxPoint x="170" y="769" as="targetPoint" />
          </mxGeometry>
        </mxCell>
        <mxCell id="1ULtt0AO9vU7mEZM1UBC-617" value="Text" style="edgeLabel;html=1;align=center;verticalAlign=middle;resizable=0;points=[];strokeColor=#0F8B8D;fontColor=#143642;fillColor=#FAE5C7;" vertex="1" connectable="0" parent="1ULtt0AO9vU7mEZM1UBC-606">
          <mxGeometry x="0.0182" y="-11" relative="1" as="geometry">
            <mxPoint x="-1" as="offset" />
          </mxGeometry>
        </mxCell>
        <mxCell id="1ULtt0AO9vU7mEZM1UBC-607" value="" style="endArrow=classic;html=1;rounded=0;strokeColor=#A8201A;fontColor=#143642;fillColor=#FAE5C7;entryX=0.25;entryY=0;entryDx=0;entryDy=0;" edge="1" parent="1" source="1ULtt0AO9vU7mEZM1UBC-622" target="1ULtt0AO9vU7mEZM1UBC-612">
          <mxGeometry width="50" height="50" relative="1" as="geometry">
            <mxPoint x="200" y="640" as="sourcePoint" />
            <mxPoint x="240" y="770" as="targetPoint" />
          </mxGeometry>
        </mxCell>
        <mxCell id="1ULtt0AO9vU7mEZM1UBC-608" value="" style="endArrow=classic;html=1;rounded=0;strokeColor=#A8201A;fontColor=#143642;fillColor=#FAE5C7;entryX=0.5;entryY=0;entryDx=0;entryDy=0;" edge="1" parent="1" source="1ULtt0AO9vU7mEZM1UBC-624" target="1ULtt0AO9vU7mEZM1UBC-612">
          <mxGeometry width="50" height="50" relative="1" as="geometry">
            <mxPoint x="380" y="660" as="sourcePoint" />
            <mxPoint x="310" y="770" as="targetPoint" />
          </mxGeometry>
        </mxCell>
        <mxCell id="1ULtt0AO9vU7mEZM1UBC-609" value="" style="endArrow=classic;html=1;rounded=0;strokeColor=#A8201A;fontColor=#143642;fillColor=#FAE5C7;entryX=0.75;entryY=0;entryDx=0;entryDy=0;" edge="1" parent="1" source="1ULtt0AO9vU7mEZM1UBC-626" target="1ULtt0AO9vU7mEZM1UBC-612">
          <mxGeometry width="50" height="50" relative="1" as="geometry">
            <mxPoint x="552" y="670" as="sourcePoint" />
            <mxPoint x="400" y="770" as="targetPoint" />
          </mxGeometry>
        </mxCell>
        <mxCell id="1ULtt0AO9vU7mEZM1UBC-610" value="" style="endArrow=classic;html=1;rounded=0;strokeColor=#A8201A;fontColor=#143642;fillColor=#FAE5C7;entryX=1;entryY=0;entryDx=0;entryDy=0;" edge="1" parent="1" source="1ULtt0AO9vU7mEZM1UBC-628" target="1ULtt0AO9vU7mEZM1UBC-612">
          <mxGeometry width="50" height="50" relative="1" as="geometry">
            <mxPoint x="712" y="670" as="sourcePoint" />
            <mxPoint x="442" y="770" as="targetPoint" />
          </mxGeometry>
        </mxCell>
        <mxCell id="1ULtt0AO9vU7mEZM1UBC-612" value="&lt;font style=&quot;font-size: 14px;&quot;&gt;A* + Genetic Algorithm&lt;/font&gt;&lt;div style=&quot;font-size: 14px;&quot;&gt;&lt;font style=&quot;font-size: 14px;&quot;&gt;f(n)= g(n) + h(n)&lt;/font&gt;&lt;/div&gt;" style="shape=process;whiteSpace=wrap;html=1;backgroundOutline=1;strokeColor=#10739e;fillColor=#b1ddf0;" vertex="1" parent="1">
          <mxGeometry x="170" y="780" width="280" height="50" as="geometry" />
        </mxCell>
        <mxCell id="1ULtt0AO9vU7mEZM1UBC-620" value="" style="endArrow=classic;html=1;rounded=0;strokeColor=#A8201A;fontColor=#143642;fillColor=#FAE5C7;entryX=0;entryY=0;entryDx=0;entryDy=0;" edge="1" parent="1" target="1ULtt0AO9vU7mEZM1UBC-614">
          <mxGeometry width="50" height="50" relative="1" as="geometry">
            <mxPoint x="10" y="639" as="sourcePoint" />
            <mxPoint x="170" y="780" as="targetPoint" />
          </mxGeometry>
        </mxCell>
        <mxCell id="1ULtt0AO9vU7mEZM1UBC-614" value="N Routes" style="rounded=0;whiteSpace=wrap;html=1;strokeColor=#0F8B8D;fontColor=#143642;fillColor=#FAE5C7;" vertex="1" parent="1">
          <mxGeometry x="60" y="710" width="60" height="20" as="geometry" />
        </mxCell>
        <mxCell id="1ULtt0AO9vU7mEZM1UBC-623" value="" style="endArrow=classic;html=1;rounded=0;strokeColor=#A8201A;fontColor=#143642;fillColor=#FAE5C7;entryX=0.25;entryY=0;entryDx=0;entryDy=0;" edge="1" parent="1" target="1ULtt0AO9vU7mEZM1UBC-622">
          <mxGeometry width="50" height="50" relative="1" as="geometry">
            <mxPoint x="200" y="640" as="sourcePoint" />
            <mxPoint x="240" y="780" as="targetPoint" />
          </mxGeometry>
        </mxCell>
        <mxCell id="1ULtt0AO9vU7mEZM1UBC-622" value="N Routes" style="rounded=0;whiteSpace=wrap;html=1;strokeColor=#0F8B8D;fontColor=#143642;fillColor=#FAE5C7;" vertex="1" parent="1">
          <mxGeometry x="190" y="710" width="60" height="20" as="geometry" />
        </mxCell>
        <mxCell id="1ULtt0AO9vU7mEZM1UBC-625" value="" style="endArrow=classic;html=1;rounded=0;strokeColor=#A8201A;fontColor=#143642;fillColor=#FAE5C7;entryX=0.5;entryY=0;entryDx=0;entryDy=0;" edge="1" parent="1" target="1ULtt0AO9vU7mEZM1UBC-624">
          <mxGeometry width="50" height="50" relative="1" as="geometry">
            <mxPoint x="380" y="660" as="sourcePoint" />
            <mxPoint x="310" y="780" as="targetPoint" />
          </mxGeometry>
        </mxCell>
        <mxCell id="1ULtt0AO9vU7mEZM1UBC-624" value="N Routes" style="rounded=0;whiteSpace=wrap;html=1;strokeColor=#0F8B8D;fontColor=#143642;fillColor=#FAE5C7;" vertex="1" parent="1">
          <mxGeometry x="320" y="710" width="60" height="20" as="geometry" />
        </mxCell>
        <mxCell id="1ULtt0AO9vU7mEZM1UBC-627" value="" style="endArrow=classic;html=1;rounded=0;strokeColor=#A8201A;fontColor=#143642;fillColor=#FAE5C7;entryX=0.75;entryY=0;entryDx=0;entryDy=0;" edge="1" parent="1" target="1ULtt0AO9vU7mEZM1UBC-626">
          <mxGeometry width="50" height="50" relative="1" as="geometry">
            <mxPoint x="552" y="670" as="sourcePoint" />
            <mxPoint x="380" y="780" as="targetPoint" />
          </mxGeometry>
        </mxCell>
        <mxCell id="1ULtt0AO9vU7mEZM1UBC-626" value="N Routes" style="rounded=0;whiteSpace=wrap;html=1;strokeColor=#0F8B8D;fontColor=#143642;fillColor=#FAE5C7;" vertex="1" parent="1">
          <mxGeometry x="438" y="720" width="60" height="20" as="geometry" />
        </mxCell>
        <mxCell id="1ULtt0AO9vU7mEZM1UBC-629" value="" style="endArrow=classic;html=1;rounded=0;strokeColor=#A8201A;fontColor=#143642;fillColor=#FAE5C7;entryX=1;entryY=0;entryDx=0;entryDy=0;" edge="1" parent="1" target="1ULtt0AO9vU7mEZM1UBC-628">
          <mxGeometry width="50" height="50" relative="1" as="geometry">
            <mxPoint x="712" y="670" as="sourcePoint" />
            <mxPoint x="450" y="780" as="targetPoint" />
          </mxGeometry>
        </mxCell>
        <mxCell id="1ULtt0AO9vU7mEZM1UBC-628" value="N Routes" style="rounded=0;whiteSpace=wrap;html=1;strokeColor=#0F8B8D;fontColor=#143642;fillColor=#FAE5C7;" vertex="1" parent="1">
          <mxGeometry x="540" y="720" width="60" height="20" as="geometry" />
        </mxCell>
        <mxCell id="1ULtt0AO9vU7mEZM1UBC-632" value="&lt;font color=&quot;#ffffff&quot;&gt;Calculation&lt;/font&gt;" style="swimlane;whiteSpace=wrap;html=1;strokeColor=#b46504;fillColor=#6600CC;startSize=25;" vertex="1" parent="1">
          <mxGeometry x="490" y="790" width="213" height="150" as="geometry" />
        </mxCell>
        <mxCell id="1ULtt0AO9vU7mEZM1UBC-633" value="&lt;font style=&quot;font-size: 14px;&quot;&gt;F(n)= G(n)&amp;nbsp; &amp;nbsp;+ H(n)&lt;/font&gt;" style="text;html=1;align=center;verticalAlign=middle;resizable=0;points=[];autosize=1;strokeColor=none;fillColor=none;fontColor=#143642;" vertex="1" parent="1ULtt0AO9vU7mEZM1UBC-632">
          <mxGeometry x="-2" y="28" width="140" height="30" as="geometry" />
        </mxCell>
        <mxCell id="1ULtt0AO9vU7mEZM1UBC-635" value="" style="ellipse;whiteSpace=wrap;html=1;align=center;dashed=1;strokeColor=#012728;fontColor=#143642;fillColor=none;" vertex="1" parent="1ULtt0AO9vU7mEZM1UBC-632">
          <mxGeometry x="3" y="27" width="82" height="33" as="geometry" />
        </mxCell>
        <mxCell id="1ULtt0AO9vU7mEZM1UBC-638" value="&lt;p style=&quot;line-height: 110%;&quot;&gt;Dijkstra&#39;s&amp;nbsp;&lt;/p&gt;" style="shape=offPageConnector;whiteSpace=wrap;html=1;strokeColor=#0F8B8D;fontColor=#143642;fillColor=#FAE5C7;direction=west;size=0.53125;align=center;" vertex="1" parent="1ULtt0AO9vU7mEZM1UBC-632">
          <mxGeometry x="20" y="58" width="70" height="32" as="geometry" />
        </mxCell>
        <mxCell id="1ULtt0AO9vU7mEZM1UBC-639" value="F(n): Final Route&lt;div&gt;G(n): Actual Route&lt;/div&gt;&lt;div&gt;H(n): Estimated Route&lt;/div&gt;&lt;div&gt;Where, H(n) is an heuristic function&amp;nbsp;&lt;/div&gt;" style="text;html=1;align=left;verticalAlign=middle;resizable=0;points=[];autosize=1;strokeColor=none;fillColor=none;fontColor=#143642;" vertex="1" parent="1ULtt0AO9vU7mEZM1UBC-632">
          <mxGeometry x="3" y="87" width="210" height="70" as="geometry" />
        </mxCell>
        <mxCell id="1ULtt0AO9vU7mEZM1UBC-640" style="edgeStyle=orthogonalEdgeStyle;rounded=0;orthogonalLoop=1;jettySize=auto;html=1;exitX=1;exitY=0.5;exitDx=0;exitDy=0;entryX=0.001;entryY=0.129;entryDx=0;entryDy=0;entryPerimeter=0;strokeColor=#A8201A;fontColor=#143642;fillColor=#FAE5C7;" edge="1" parent="1" source="1ULtt0AO9vU7mEZM1UBC-612" target="1ULtt0AO9vU7mEZM1UBC-632">
          <mxGeometry relative="1" as="geometry" />
        </mxCell>
        <mxCell id="1ULtt0AO9vU7mEZM1UBC-645" style="edgeStyle=orthogonalEdgeStyle;rounded=0;orthogonalLoop=1;jettySize=auto;html=1;exitX=0;exitY=0;exitDx=70;exitDy=80;exitPerimeter=0;entryX=0.5;entryY=0;entryDx=0;entryDy=0;strokeColor=#A8201A;fontColor=#143642;fillColor=#FAE5C7;" edge="1" parent="1" source="1ULtt0AO9vU7mEZM1UBC-642" target="1ULtt0AO9vU7mEZM1UBC-644">
          <mxGeometry relative="1" as="geometry" />
        </mxCell>
        <mxCell id="1ULtt0AO9vU7mEZM1UBC-642" value="&lt;font style=&quot;font-size: 18px;&quot;&gt;Optimal&amp;nbsp;&lt;/font&gt;&lt;div style=&quot;font-size: 18px;&quot;&gt;&lt;font style=&quot;font-size: 18px;&quot;&gt;Route&lt;/font&gt;&lt;/div&gt;" style="shape=cube;whiteSpace=wrap;html=1;boundedLbl=1;backgroundOutline=1;darkOpacity=0.05;darkOpacity2=0.1;strokeColor=#0F8B8D;fontColor=#143642;fillColor=#fbcbcb;" vertex="1" parent="1">
          <mxGeometry x="40" y="890" width="120" height="80" as="geometry" />
        </mxCell>
        <mxCell id="1ULtt0AO9vU7mEZM1UBC-643" style="edgeStyle=orthogonalEdgeStyle;rounded=0;orthogonalLoop=1;jettySize=auto;html=1;exitX=0;exitY=0.5;exitDx=0;exitDy=0;entryX=0;entryY=0;entryDx=50;entryDy=0;entryPerimeter=0;strokeColor=#A8201A;fontColor=#143642;fillColor=#FAE5C7;" edge="1" parent="1" source="1ULtt0AO9vU7mEZM1UBC-632" target="1ULtt0AO9vU7mEZM1UBC-642">
          <mxGeometry relative="1" as="geometry">
            <Array as="points">
              <mxPoint x="490" y="850" />
              <mxPoint x="90" y="850" />
            </Array>
          </mxGeometry>
        </mxCell>
        <mxCell id="1ULtt0AO9vU7mEZM1UBC-646" style="edgeStyle=orthogonalEdgeStyle;rounded=0;orthogonalLoop=1;jettySize=auto;html=1;exitX=1;exitY=0.5;exitDx=0;exitDy=0;strokeColor=#A8201A;fontColor=#143642;fillColor=#FAE5C7;" edge="1" parent="1" source="1ULtt0AO9vU7mEZM1UBC-644">
          <mxGeometry relative="1" as="geometry">
            <mxPoint x="340" y="1050" as="targetPoint" />
          </mxGeometry>
        </mxCell>
        <mxCell id="1ULtt0AO9vU7mEZM1UBC-644" value="&lt;font style=&quot;font-size: 16px;&quot;&gt;Display The Route Coordinates&lt;/font&gt;" style="shape=hexagon;perimeter=hexagonPerimeter2;whiteSpace=wrap;html=1;fixedSize=1;strokeColor=#0F8B8D;fontColor=#143642;fillColor=#affea9;" vertex="1" parent="1">
          <mxGeometry x="50" y="1010" width="120" height="80" as="geometry" />
        </mxCell>
        <mxCell id="1ULtt0AO9vU7mEZM1UBC-648" value="&lt;font style=&quot;font-size: 24px;&quot;&gt;The Optimal Route Map&lt;/font&gt;" style="shape=or;whiteSpace=wrap;html=1;strokeColor=#56517e;fillColor=#d0cee2;" vertex="1" parent="1">
          <mxGeometry x="343" y="980" width="187" height="160" as="geometry" />
        </mxCell>
      </root>
    </mxGraphModel>
  </diagram>
</mxfile>
